<svg width="1060" height="65" viewBox="0 0 1060 65" fill="none" xmlns="http://www.w3.org/2000/svg">
<path d="M43.106 49V10.274L25.887 40.357H22.939L5.653 10.274V49H0.963V1.43H5.787L24.346 33.992L43.039 1.43H47.796V49H43.106ZM82.5114 49.67C80.0101 49.67 77.6874 49.201 75.5434 48.263C73.4441 47.2803 71.6128 45.9627 70.0494 44.31C68.5308 42.6127 67.3471 40.692 66.4984 38.548C65.6498 36.3593 65.2254 34.059 65.2254 31.647C65.2254 29.1457 65.6498 26.823 66.4984 24.679C67.3471 22.4903 68.5531 20.5697 70.1164 18.917C71.6798 17.2197 73.5111 15.902 75.6104 14.964C77.7544 13.9813 80.0771 13.49 82.5784 13.49C85.0798 13.49 87.3801 13.9813 89.4794 14.964C91.5788 15.902 93.4101 17.2197 94.9734 18.917C96.5368 20.5697 97.7428 22.4903 98.5914 24.679C99.4401 26.823 99.8644 29.1457 99.8644 31.647C99.8644 34.059 99.4401 36.3593 98.5914 38.548C97.7428 40.692 96.5368 42.6127 94.9734 44.31C93.4548 45.9627 91.6234 47.2803 89.4794 48.263C87.3801 49.201 85.0574 49.67 82.5114 49.67ZM69.8484 31.714C69.8484 34.3047 70.4068 36.672 71.5234 38.816C72.6848 40.9153 74.2258 42.5903 76.1464 43.841C78.0671 45.047 80.1888 45.65 82.5114 45.65C84.8341 45.65 86.9558 45.0247 88.8764 43.774C90.7971 42.5233 92.3381 40.826 93.4994 38.682C94.6608 36.4933 95.2414 34.126 95.2414 31.58C95.2414 28.9893 94.6608 26.622 93.4994 24.478C92.3381 22.334 90.7971 20.6367 88.8764 19.386C86.9558 18.1353 84.8341 17.51 82.5114 17.51C80.1888 17.51 78.0671 18.1577 76.1464 19.453C74.2704 20.7483 72.7518 22.468 71.5904 24.612C70.4291 26.7113 69.8484 29.0787 69.8484 31.714ZM133.949 49.67C131.224 49.67 128.701 48.9777 126.378 47.593C124.055 46.1637 122.246 44.377 120.951 42.233V49H116.864V0.0899987H121.42V21.396C122.983 19.0287 124.859 17.1303 127.048 15.701C129.237 14.227 131.783 13.49 134.686 13.49C137.143 13.49 139.331 14.0037 141.252 15.031C143.217 16.0583 144.892 17.443 146.277 19.185C147.662 20.8823 148.711 22.8253 149.426 25.014C150.141 27.158 150.498 29.369 150.498 31.647C150.498 34.1037 150.074 36.404 149.225 38.548C148.421 40.692 147.26 42.6127 145.741 44.31C144.222 45.9627 142.458 47.2803 140.448 48.263C138.483 49.201 136.316 49.67 133.949 49.67ZM132.877 45.65C134.753 45.65 136.495 45.2703 138.103 44.511C139.711 43.7517 141.096 42.702 142.257 41.362C143.418 40.022 144.312 38.5257 144.937 36.873C145.562 35.1757 145.875 33.4337 145.875 31.647C145.875 29.1903 145.339 26.89 144.267 24.746C143.24 22.5573 141.788 20.8153 139.912 19.52C138.081 18.18 135.914 17.51 133.413 17.51C131.626 17.51 129.951 17.912 128.388 18.716C126.869 19.52 125.507 20.592 124.301 21.932C123.14 23.2273 122.179 24.6567 121.42 26.22V37.074C121.599 38.28 122.068 39.419 122.827 40.491C123.586 41.5183 124.524 42.4117 125.641 43.171C126.802 43.9303 128.008 44.5333 129.259 44.98C130.51 45.4267 131.716 45.65 132.877 45.65ZM167.596 49V14.093H172.152V49H167.596ZM167.596 6.79V0.0899987H172.152V6.79H167.596ZM191.767 0.0899987H196.323V41.094C196.323 42.836 196.636 43.975 197.261 44.511C197.887 45.047 198.646 45.315 199.539 45.315C200.343 45.315 201.147 45.2257 201.951 45.047C202.755 44.8683 203.448 44.6897 204.028 44.511L204.832 48.196C203.984 48.5533 202.934 48.8437 201.683 49.067C200.477 49.2903 199.428 49.402 198.534 49.402C196.48 49.402 194.827 48.799 193.576 47.593C192.37 46.387 191.767 44.7343 191.767 42.635V0.0899987ZM234.276 49.67C231.775 49.67 229.452 49.201 227.308 48.263C225.164 47.2803 223.311 45.9627 221.747 44.31C220.184 42.6127 218.956 40.6697 218.062 38.481C217.214 36.2923 216.789 33.9473 216.789 31.446C216.789 28.1853 217.526 25.1927 219 22.468C220.519 19.7433 222.596 17.577 225.231 15.969C227.867 14.3163 230.859 13.49 234.209 13.49C237.649 13.49 240.641 14.3163 243.187 15.969C245.778 17.6217 247.81 19.8103 249.284 22.535C250.758 25.215 251.495 28.163 251.495 31.379C251.495 31.7363 251.495 32.0937 251.495 32.451C251.495 32.7637 251.473 33.0093 251.428 33.188H221.546C221.77 35.6893 222.462 37.9227 223.623 39.888C224.829 41.8087 226.37 43.3497 228.246 44.511C230.167 45.6277 232.244 46.186 234.477 46.186C236.755 46.186 238.899 45.6053 240.909 44.444C242.964 43.2827 244.393 41.764 245.197 39.888L249.15 40.96C248.436 42.6127 247.341 44.109 245.867 45.449C244.393 46.789 242.651 47.8387 240.641 48.598C238.676 49.3127 236.554 49.67 234.276 49.67ZM221.412 29.905H247.207C247.029 27.359 246.336 25.1257 245.13 23.205C243.969 21.2843 242.428 19.788 240.507 18.716C238.631 17.5993 236.554 17.041 234.276 17.041C231.998 17.041 229.921 17.5993 228.045 18.716C226.169 19.788 224.628 21.3067 223.422 23.272C222.261 25.1927 221.591 27.4037 221.412 29.905ZM299.99 10.073V49H295.3V1.43H299.186L330.408 41.094V1.497H335.098V49H330.743L299.99 10.073ZM352.356 38.95C352.356 36.7613 352.981 34.8853 354.232 33.322C355.482 31.714 357.202 30.4857 359.391 29.637C361.624 28.7437 364.192 28.297 367.096 28.297C368.793 28.297 370.557 28.431 372.389 28.699C374.22 28.967 375.85 29.369 377.28 29.905V26.957C377.28 24.009 376.409 21.664 374.667 19.922C372.925 18.18 370.513 17.309 367.431 17.309C365.555 17.309 363.701 17.6663 361.87 18.381C360.083 19.051 358.207 20.056 356.242 21.396L354.5 18.18C356.778 16.6167 359.011 15.4553 361.2 14.696C363.388 13.892 365.622 13.49 367.9 13.49C372.188 13.49 375.582 14.7183 378.084 17.175C380.585 19.6317 381.836 23.0263 381.836 27.359V43.506C381.836 44.1313 381.97 44.6003 382.238 44.913C382.506 45.181 382.93 45.3373 383.511 45.382V49C383.019 49.0447 382.595 49.0893 382.238 49.134C381.88 49.1787 381.612 49.1787 381.434 49.134C380.317 49.0893 379.468 48.732 378.888 48.062C378.307 47.392 377.994 46.6773 377.95 45.918L377.883 43.372C376.319 45.382 374.287 46.9453 371.786 48.062C369.284 49.134 366.738 49.67 364.148 49.67C361.914 49.67 359.882 49.201 358.051 48.263C356.264 47.2803 354.857 45.985 353.83 44.377C352.847 42.7243 352.356 40.9153 352.356 38.95ZM375.739 41.63C376.23 41.0047 376.61 40.4017 376.878 39.821C377.146 39.2403 377.28 38.7267 377.28 38.28V33.188C375.761 32.6073 374.175 32.1607 372.523 31.848C370.915 31.5353 369.284 31.379 367.632 31.379C364.371 31.379 361.736 32.0267 359.726 33.322C357.716 34.6173 356.711 36.3817 356.711 38.615C356.711 39.9103 357.046 41.1387 357.716 42.3C358.386 43.4167 359.368 44.3547 360.664 45.114C361.959 45.8287 363.478 46.186 365.22 46.186C367.408 46.186 369.441 45.7617 371.317 44.913C373.237 44.0643 374.711 42.97 375.739 41.63ZM401.059 49V14.093H405.615V49H401.059ZM401.059 6.79V0.0899987H405.615V6.79H401.059ZM425.231 0.0899987H429.787V41.094C429.787 42.836 430.1 43.975 430.725 44.511C431.35 45.047 432.11 45.315 433.003 45.315C433.807 45.315 434.611 45.2257 435.415 45.047C436.219 44.8683 436.911 44.6897 437.492 44.511L438.296 48.196C437.447 48.5533 436.398 48.8437 435.147 49.067C433.941 49.2903 432.891 49.402 431.998 49.402C429.943 49.402 428.291 48.799 427.04 47.593C425.834 46.387 425.231 44.7343 425.231 42.635V0.0899987ZM510.326 49L486.608 24.009C484.687 21.9543 483.146 20.2123 481.985 18.783C480.823 17.309 479.997 15.9913 479.506 14.83C479.014 13.624 478.769 12.4403 478.769 11.279C478.769 9.31366 479.282 7.54933 480.31 5.986C481.382 4.42266 482.811 3.172 484.598 2.234C486.429 1.296 488.461 0.826997 490.695 0.826997C492.794 0.826997 494.67 1.229 496.323 2.033C498.02 2.79233 499.36 3.88667 500.343 5.316C501.325 6.70066 501.817 8.331 501.817 10.207C501.817 12.217 501.236 14.026 500.075 15.634C498.958 17.1973 497.484 18.6713 495.653 20.056C493.866 21.396 491.878 22.7583 489.69 24.143C487.858 25.3937 486.161 26.6667 484.598 27.962C483.079 29.2127 481.873 30.5527 480.98 31.982C480.086 33.4113 479.64 35.0417 479.64 36.873C479.64 38.8383 480.198 40.5133 481.315 41.898C482.431 43.238 483.838 44.2653 485.536 44.98C487.278 45.65 489.064 45.985 490.896 45.985C493.308 45.985 495.519 45.449 497.529 44.377C499.583 43.2603 501.37 41.7417 502.889 39.821C504.407 37.8557 505.569 35.6223 506.373 33.121C507.221 30.6197 507.646 27.962 507.646 25.148H511.532C511.532 28.5427 510.996 31.7363 509.924 34.729C508.852 37.677 507.355 40.2677 505.435 42.501C503.559 44.7343 501.325 46.4987 498.735 47.794C496.189 49.0447 493.419 49.67 490.427 49.67C487.657 49.67 485.111 49.134 482.789 48.062C480.466 46.9453 478.612 45.4267 477.228 43.506C475.888 41.5853 475.218 39.3297 475.218 36.739C475.218 34.327 475.776 32.2277 476.893 30.441C478.054 28.6097 479.528 26.9793 481.315 25.55C483.146 24.076 485.067 22.6913 487.077 21.396C489.131 20.056 490.94 18.8277 492.504 17.711C494.112 16.5497 495.362 15.3883 496.256 14.227C497.149 13.021 497.596 11.7257 497.596 10.341C497.596 8.599 496.948 7.16966 495.653 6.053C494.357 4.93633 492.705 4.378 490.695 4.378C489.221 4.378 487.903 4.69067 486.742 5.316C485.58 5.94133 484.665 6.76767 483.995 7.795C483.325 8.82233 482.99 9.939 482.99 11.145C482.99 11.9043 483.168 12.7083 483.526 13.557C483.883 14.361 484.575 15.3883 485.603 16.639C486.63 17.845 488.104 19.453 490.025 21.463L516.356 49H510.326ZM594.335 36.739C594.335 39.1063 593.732 41.228 592.526 43.104C591.32 44.9353 589.69 46.387 587.635 47.459C585.625 48.4863 583.414 49 581.002 49H558.557V1.43H581.471C583.705 1.43 585.625 2.033 587.233 3.239C588.886 4.40033 590.137 5.919 590.985 7.795C591.879 9.62633 592.325 11.547 592.325 13.557C592.325 15.9243 591.722 18.113 590.516 20.123C589.31 22.133 587.635 23.6293 585.491 24.612C588.216 25.416 590.36 26.9123 591.923 29.101C593.531 31.2897 594.335 33.8357 594.335 36.739ZM589.645 35.935C589.645 34.327 589.288 32.853 588.573 31.513C587.859 30.1283 586.876 29.0117 585.625 28.163C584.419 27.3143 583.035 26.89 581.471 26.89H563.247V44.913H581.002C582.61 44.913 584.062 44.4887 585.357 43.64C586.653 42.7913 587.68 41.697 588.439 40.357C589.243 38.9723 589.645 37.4983 589.645 35.935ZM563.247 5.517V23.071H579.595C581.159 23.071 582.543 22.669 583.749 21.865C584.955 21.0163 585.916 19.922 586.63 18.582C587.345 17.242 587.702 15.8127 587.702 14.294C587.702 12.686 587.367 11.2343 586.697 9.939C586.027 8.599 585.112 7.527 583.95 6.723C582.789 5.919 581.471 5.517 579.997 5.517H563.247ZM626.697 49.67C624.196 49.67 621.873 49.201 619.729 48.263C617.585 47.2803 615.732 45.9627 614.168 44.31C612.605 42.6127 611.377 40.6697 610.483 38.481C609.635 36.2923 609.21 33.9473 609.21 31.446C609.21 28.1853 609.947 25.1927 611.421 22.468C612.94 19.7433 615.017 17.577 617.652 15.969C620.288 14.3163 623.28 13.49 626.63 13.49C630.07 13.49 633.062 14.3163 635.608 15.969C638.199 17.6217 640.231 19.8103 641.705 22.535C643.179 25.215 643.916 28.163 643.916 31.379C643.916 31.7363 643.916 32.0937 643.916 32.451C643.916 32.7637 643.894 33.0093 643.849 33.188H613.967C614.191 35.6893 614.883 37.9227 616.044 39.888C617.25 41.8087 618.791 43.3497 620.667 44.511C622.588 45.6277 624.665 46.186 626.898 46.186C629.176 46.186 631.32 45.6053 633.33 44.444C635.385 43.2827 636.814 41.764 637.618 39.888L641.571 40.96C640.857 42.6127 639.762 44.109 638.288 45.449C636.814 46.789 635.072 47.8387 633.062 48.598C631.097 49.3127 628.975 49.67 626.697 49.67ZM613.833 29.905H639.628C639.45 27.359 638.757 25.1257 637.551 23.205C636.39 21.2843 634.849 19.788 632.928 18.716C631.052 17.5993 628.975 17.041 626.697 17.041C624.419 17.041 622.342 17.5993 620.466 18.716C618.59 19.788 617.049 21.3067 615.843 23.272C614.682 25.1927 614.012 27.4037 613.833 29.905ZM657.512 38.95C657.512 36.7613 658.137 34.8853 659.388 33.322C660.638 31.714 662.358 30.4857 664.547 29.637C666.78 28.7437 669.348 28.297 672.252 28.297C673.949 28.297 675.713 28.431 677.545 28.699C679.376 28.967 681.006 29.369 682.436 29.905V26.957C682.436 24.009 681.565 21.664 679.823 19.922C678.081 18.18 675.669 17.309 672.587 17.309C670.711 17.309 668.857 17.6663 667.026 18.381C665.239 19.051 663.363 20.056 661.398 21.396L659.656 18.18C661.934 16.6167 664.167 15.4553 666.356 14.696C668.544 13.892 670.778 13.49 673.056 13.49C677.344 13.49 680.738 14.7183 683.24 17.175C685.741 19.6317 686.992 23.0263 686.992 27.359V43.506C686.992 44.1313 687.126 44.6003 687.394 44.913C687.662 45.181 688.086 45.3373 688.667 45.382V49C688.175 49.0447 687.751 49.0893 687.394 49.134C687.036 49.1787 686.768 49.1787 686.59 49.134C685.473 49.0893 684.624 48.732 684.044 48.062C683.463 47.392 683.15 46.6773 683.106 45.918L683.039 43.372C681.475 45.382 679.443 46.9453 676.942 48.062C674.44 49.134 671.894 49.67 669.304 49.67C667.07 49.67 665.038 49.201 663.207 48.263C661.42 47.2803 660.013 45.985 658.986 44.377C658.003 42.7243 657.512 40.9153 657.512 38.95ZM680.895 41.63C681.386 41.0047 681.766 40.4017 682.034 39.821C682.302 39.2403 682.436 38.7267 682.436 38.28V33.188C680.917 32.6073 679.331 32.1607 677.679 31.848C676.071 31.5353 674.44 31.379 672.788 31.379C669.527 31.379 666.892 32.0267 664.882 33.322C662.872 34.6173 661.867 36.3817 661.867 38.615C661.867 39.9103 662.202 41.1387 662.872 42.3C663.542 43.4167 664.524 44.3547 665.82 45.114C667.115 45.8287 668.634 46.186 670.376 46.186C672.564 46.186 674.597 45.7617 676.473 44.913C678.393 44.0643 679.867 42.97 680.895 41.63ZM705.88 34.595V14.093H710.436V33.791C710.436 37.7663 711.106 40.7367 712.446 42.702C713.831 44.6673 715.863 45.65 718.543 45.65C720.33 45.65 722.05 45.2703 723.702 44.511C725.4 43.707 726.896 42.5903 728.191 41.161C729.487 39.687 730.469 37.9897 731.139 36.069V14.093H735.695V43.506C735.695 44.1313 735.829 44.6003 736.097 44.913C736.365 45.181 736.767 45.3373 737.303 45.382V49C736.767 49.0447 736.343 49.067 736.03 49.067C735.718 49.1117 735.427 49.134 735.159 49.134C734.266 49.0447 733.484 48.6873 732.814 48.062C732.189 47.4367 731.854 46.6773 731.809 45.784L731.675 41.094C730.157 43.774 728.08 45.8733 725.444 47.392C722.854 48.9107 720.04 49.67 717.002 49.67C713.34 49.67 710.57 48.397 708.694 45.851C706.818 43.305 705.88 39.553 705.88 34.595ZM772.127 47.325C771.769 47.459 771.211 47.7047 770.452 48.062C769.692 48.4193 768.777 48.732 767.705 49C766.633 49.268 765.471 49.402 764.221 49.402C762.925 49.402 761.697 49.1563 760.536 48.665C759.419 48.1737 758.526 47.4367 757.856 46.454C757.186 45.4267 756.851 44.176 756.851 42.702V17.711H752.027V14.093H756.851V2.301H761.407V14.093H769.447V17.711H761.407V41.429C761.496 42.6797 761.943 43.6177 762.747 44.243C763.595 44.8683 764.556 45.181 765.628 45.181C766.878 45.181 768.017 44.98 769.045 44.578C770.072 44.1313 770.697 43.8187 770.921 43.64L772.127 47.325ZM789.209 59.72C789.834 59.7647 790.437 59.787 791.018 59.787C791.599 59.8317 792.023 59.8093 792.291 59.72C792.827 59.6307 793.341 59.318 793.832 58.782C794.323 58.246 794.904 57.2187 795.574 55.7C796.244 54.1813 797.182 51.948 798.388 49L783.179 14.093H788.003L800.8 44.31L812.592 14.093H817.148L799.058 59.117C798.745 59.9657 798.276 60.7473 797.651 61.462C797.026 62.2213 796.244 62.802 795.306 63.204C794.413 63.6507 793.296 63.8963 791.956 63.941C791.554 63.9857 791.13 63.9857 790.683 63.941C790.281 63.941 789.79 63.8963 789.209 63.807V59.72ZM886.261 10.341C885.591 9.58166 884.809 8.91166 883.916 8.331C883.022 7.70566 882.017 7.16966 880.901 6.723C879.784 6.27633 878.578 5.919 877.283 5.651C876.032 5.383 874.692 5.249 873.263 5.249C869.109 5.249 866.049 6.053 864.084 7.661C862.163 9.22433 861.203 11.3683 861.203 14.093C861.203 15.969 861.649 17.443 862.543 18.515C863.481 19.587 864.932 20.458 866.898 21.128C868.863 21.798 871.364 22.4903 874.402 23.205C877.796 23.9197 880.722 24.7683 883.179 25.751C885.635 26.7337 887.534 28.0737 888.874 29.771C890.214 31.4237 890.884 33.6793 890.884 36.538C890.884 38.7267 890.459 40.625 889.611 42.233C888.762 43.841 887.578 45.181 886.06 46.253C884.541 47.325 882.732 48.129 880.633 48.665C878.533 49.1563 876.233 49.402 873.732 49.402C871.275 49.402 868.908 49.1563 866.63 48.665C864.396 48.129 862.275 47.3697 860.265 46.387C858.255 45.3597 856.379 44.0643 854.637 42.501L856.982 38.682C857.83 39.5753 858.835 40.424 859.997 41.228C861.203 41.9873 862.52 42.6797 863.95 43.305C865.424 43.9303 866.987 44.4217 868.64 44.779C870.337 45.0917 872.079 45.248 873.866 45.248C877.662 45.248 880.61 44.5557 882.71 43.171C884.854 41.7863 885.926 39.7317 885.926 37.007C885.926 35.0417 885.39 33.4783 884.318 32.317C883.246 31.111 881.638 30.1283 879.494 29.369C877.35 28.6097 874.714 27.8727 871.588 27.158C868.282 26.3987 865.491 25.55 863.213 24.612C860.935 23.674 859.215 22.4457 858.054 20.927C856.937 19.3637 856.379 17.309 856.379 14.763C856.379 11.815 857.093 9.336 858.523 7.326C859.997 5.27133 862.007 3.73033 864.553 2.703C867.099 1.631 870.024 1.095 873.33 1.095C875.429 1.095 877.372 1.31833 879.159 1.765C880.99 2.167 882.665 2.77 884.184 3.574C885.747 4.378 887.199 5.383 888.539 6.589L886.261 10.341ZM904.781 38.95C904.781 36.7613 905.406 34.8853 906.657 33.322C907.908 31.714 909.627 30.4857 911.816 29.637C914.049 28.7437 916.618 28.297 919.521 28.297C921.218 28.297 922.983 28.431 924.814 28.699C926.645 28.967 928.276 29.369 929.705 29.905V26.957C929.705 24.009 928.834 21.664 927.092 19.922C925.35 18.18 922.938 17.309 919.856 17.309C917.98 17.309 916.126 17.6663 914.295 18.381C912.508 19.051 910.632 20.056 908.667 21.396L906.925 18.18C909.203 16.6167 911.436 15.4553 913.625 14.696C915.814 13.892 918.047 13.49 920.325 13.49C924.613 13.49 928.008 14.7183 930.509 17.175C933.01 19.6317 934.261 23.0263 934.261 27.359V43.506C934.261 44.1313 934.395 44.6003 934.663 44.913C934.931 45.181 935.355 45.3373 935.936 45.382V49C935.445 49.0447 935.02 49.0893 934.663 49.134C934.306 49.1787 934.038 49.1787 933.859 49.134C932.742 49.0893 931.894 48.732 931.313 48.062C930.732 47.392 930.42 46.6773 930.375 45.918L930.308 43.372C928.745 45.382 926.712 46.9453 924.211 48.062C921.71 49.134 919.164 49.67 916.573 49.67C914.34 49.67 912.307 49.201 910.476 48.263C908.689 47.2803 907.282 45.985 906.255 44.377C905.272 42.7243 904.781 40.9153 904.781 38.95ZM928.164 41.63C928.655 41.0047 929.035 40.4017 929.303 39.821C929.571 39.2403 929.705 38.7267 929.705 38.28V33.188C928.186 32.6073 926.601 32.1607 924.948 31.848C923.34 31.5353 921.71 31.379 920.057 31.379C916.796 31.379 914.161 32.0267 912.151 33.322C910.141 34.6173 909.136 36.3817 909.136 38.615C909.136 39.9103 909.471 41.1387 910.141 42.3C910.811 43.4167 911.794 44.3547 913.089 45.114C914.384 45.8287 915.903 46.186 917.645 46.186C919.834 46.186 921.866 45.7617 923.742 44.913C925.663 44.0643 927.137 42.97 928.164 41.63ZM953.686 0.0899987H958.242V41.094C958.242 42.836 958.554 43.975 959.18 44.511C959.805 45.047 960.564 45.315 961.458 45.315C962.262 45.315 963.066 45.2257 963.87 45.047C964.674 44.8683 965.366 44.6897 965.947 44.511L966.751 48.196C965.902 48.5533 964.852 48.8437 963.602 49.067C962.396 49.2903 961.346 49.402 960.453 49.402C958.398 49.402 956.745 48.799 955.495 47.593C954.289 46.387 953.686 44.7343 953.686 42.635V0.0899987ZM995.994 49.67C993.492 49.67 991.17 49.201 989.026 48.263C986.926 47.2803 985.095 45.9627 983.532 44.31C982.013 42.6127 980.829 40.692 979.981 38.548C979.132 36.3593 978.708 34.059 978.708 31.647C978.708 29.1457 979.132 26.823 979.981 24.679C980.829 22.4903 982.035 20.5697 983.599 18.917C985.162 17.2197 986.993 15.902 989.093 14.964C991.237 13.9813 993.559 13.49 996.061 13.49C998.562 13.49 1000.86 13.9813 1002.96 14.964C1005.06 15.902 1006.89 17.2197 1008.46 18.917C1010.02 20.5697 1011.22 22.4903 1012.07 24.679C1012.92 26.823 1013.35 29.1457 1013.35 31.647C1013.35 34.059 1012.92 36.3593 1012.07 38.548C1011.22 40.692 1010.02 42.6127 1008.46 44.31C1006.94 45.9627 1005.11 47.2803 1002.96 48.263C1000.86 49.201 998.54 49.67 995.994 49.67ZM983.331 31.714C983.331 34.3047 983.889 36.672 985.006 38.816C986.167 40.9153 987.708 42.5903 989.629 43.841C991.549 45.047 993.671 45.65 995.994 45.65C998.316 45.65 1000.44 45.0247 1002.36 43.774C1004.28 42.5233 1005.82 40.826 1006.98 38.682C1008.14 36.4933 1008.72 34.126 1008.72 31.58C1008.72 28.9893 1008.14 26.622 1006.98 24.478C1005.82 22.334 1004.28 20.6367 1002.36 19.386C1000.44 18.1353 998.316 17.51 995.994 17.51C993.671 17.51 991.549 18.1577 989.629 19.453C987.753 20.7483 986.234 22.468 985.073 24.612C983.911 26.7113 983.331 29.0787 983.331 31.714ZM1059.69 49H1055.14V29.503C1055.14 25.3937 1054.53 22.401 1053.33 20.525C1052.12 18.6043 1050.22 17.644 1047.63 17.644C1045.85 17.644 1044.08 18.0907 1042.34 18.984C1040.6 19.8327 1039.06 21.0163 1037.72 22.535C1036.42 24.009 1035.48 25.7063 1034.9 27.627V49H1030.35V14.093H1034.5V21.999C1035.44 20.3017 1036.67 18.8277 1038.19 17.577C1039.7 16.2817 1041.42 15.2767 1043.34 14.562C1045.26 13.8473 1047.25 13.49 1049.31 13.49C1051.23 13.49 1052.86 13.8473 1054.2 14.562C1055.54 15.2767 1056.61 16.304 1057.41 17.644C1058.22 18.9393 1058.8 20.525 1059.16 22.401C1059.51 24.2323 1059.69 26.287 1059.69 28.565V49Z" fill="#606060"/>
</svg>
