<svg width="561" height="213" viewBox="0 0 561 213" fill="none" xmlns="http://www.w3.org/2000/svg">
<path d="M0.353 210V2.79398H93.627C115.746 2.79398 133.169 8.84532 145.898 20.948C158.627 32.842 164.991 49.0137 164.991 69.463C164.991 89.9123 158.627 106.188 145.898 118.291C133.169 130.185 115.746 136.132 93.627 136.132H23.828V210H0.353ZM23.828 114.222H92.062C108.338 114.222 120.649 110.257 128.996 102.328C137.343 94.3987 141.516 83.4437 141.516 69.463C141.516 55.691 137.343 44.8403 128.996 36.911C120.649 28.9817 108.338 25.017 92.062 25.017H23.828V114.222ZM196.895 210V2.79398H289.856C306.132 2.79398 318.965 5.61098 328.355 11.245C337.954 16.879 344.84 23.9737 349.013 32.529C353.186 40.8757 355.273 49.2223 355.273 57.569C355.273 70.9237 352.456 81.2527 346.822 88.556C341.188 95.6507 334.719 100.867 327.416 104.206C333.259 106.084 339.101 109.11 344.944 113.283C350.995 117.248 356.003 122.673 359.968 129.559C363.933 136.445 365.915 145.105 365.915 155.538C365.915 170.979 359.968 183.917 348.074 194.35C336.389 204.783 318.756 210 295.177 210H196.895ZM220.37 95.442H289.856C297.159 95.442 303.941 94.19 310.201 91.686C316.67 89.182 321.886 85.3217 325.851 80.105C329.816 74.6797 331.798 67.7937 331.798 59.447C331.798 53.6043 330.442 48.0747 327.729 42.858C325.225 37.6413 321.052 33.3637 315.209 30.025C309.575 26.6863 301.959 25.017 292.36 25.017H220.37V95.442ZM220.37 187.777H297.681C311.87 187.777 322.825 184.856 330.546 179.013C338.475 172.962 342.44 164.511 342.44 153.66C342.44 143.853 338.684 135.297 331.172 127.994C323.66 120.482 311.662 116.726 295.177 116.726H220.37V187.777ZM478.316 212.504C457.867 212.504 441.278 209.791 428.549 204.366C415.821 198.732 406.222 191.011 399.753 181.204C393.493 171.397 389.842 160.337 388.798 148.026H413.212C413.838 158.042 417.177 166.18 423.228 172.44C429.28 178.491 437.209 182.978 447.016 185.899C457.032 188.82 467.987 190.281 479.881 190.281C497.409 190.281 511.286 187.255 521.51 181.204C531.735 174.944 536.847 165.763 536.847 153.66C536.847 146.357 534.239 140.514 529.022 136.132C524.014 131.541 517.233 127.785 508.677 124.864C500.331 121.943 491.149 119.334 481.133 117.039C471.117 114.535 460.997 111.927 450.772 109.214C440.756 106.501 431.471 103.058 422.915 98.885C414.569 94.7117 407.787 89.3907 402.57 82.922C397.562 76.2447 395.058 67.7937 395.058 57.569C395.058 40.667 401.527 26.895 414.464 16.253C427.61 5.61099 447.121 0.289995 472.995 0.289995C491.358 0.289995 506.486 3.107 518.38 8.741C530.274 14.1663 539.143 21.3653 544.985 30.338C551.037 39.3107 554.375 49.0137 555.001 59.447H530.9C529.648 49.0137 524.432 40.2497 515.25 33.155C506.069 25.8517 491.984 22.2 472.995 22.2C461.31 22.2 451.816 23.3477 444.512 25.643C437.209 27.9383 431.575 30.964 427.61 34.72C423.854 38.2673 421.246 42.0233 419.785 45.988C418.533 49.9527 417.907 53.7087 417.907 57.256C417.907 64.142 420.411 69.776 425.419 74.158C430.636 78.3313 437.418 81.8787 445.764 84.8C454.32 87.5127 463.71 90.0167 473.934 92.312C484.159 94.6073 494.279 97.2157 504.295 100.137C514.52 102.85 523.806 106.397 532.152 110.779C540.708 114.952 547.489 120.378 552.497 127.055C557.714 133.732 560.322 142.288 560.322 152.721C560.322 171.918 553.019 186.734 538.412 197.167C523.806 207.392 503.774 212.504 478.316 212.504Z" fill="url(#paint0_linear_54_584)"/>
<defs>
<linearGradient id="paint0_linear_54_584" x1="-77.1967" y1="149.152" x2="601.36" y2="139.335" gradientUnits="userSpaceOnUse">
<stop offset="0.161458" stop-color="#606060"/>
<stop offset="0.359375" stop-color="#606060" stop-opacity="0.48"/>
<stop offset="0.510417" stop-color="#FFD6D6"/>
<stop offset="0.671875" stop-color="#606060" stop-opacity="0.51"/>
<stop offset="0.911458" stop-color="#606060"/>
</linearGradient>
</defs>
</svg>
