<svg width="235" height="282" viewBox="0 0 235 282" fill="none" xmlns="http://www.w3.org/2000/svg">
<path d="M233.912 195.559V192.397H0.183261V198.173H0.215526C-1.20414 208.724 4.37774 219.016 17.3161 226.47L70.9731 257.444C96.6562 272.286 141.537 270.415 171.189 253.282L209.552 231.148C227.169 220.984 235.429 207.723 233.912 195.527V195.559Z" fill="url(#paint0_linear_43_459)"/>
<path d="M71.0054 248.249L17.3484 217.274C-8.33473 202.432 -5.10821 176.555 24.5435 159.422L62.9068 137.289C92.5586 120.156 137.439 118.317 163.123 133.126L216.78 164.101C242.463 178.943 239.236 204.82 209.584 221.952L171.221 244.086C141.569 261.219 96.6885 263.058 71.0054 248.249Z" fill="url(#paint1_linear_43_459)"/>
<path style="mix-blend-mode:color-dodge" d="M209.552 219.694L171.189 241.828C141.537 258.961 96.6563 260.8 70.9732 245.99L17.3161 215.015C6.44274 208.724 0.796328 200.464 0.118759 191.72C-0.591076 201.754 4.99081 211.434 17.3161 218.532L70.9732 249.507C96.6563 264.349 141.537 262.478 171.189 245.345L209.552 223.211C226.653 213.338 234.913 200.528 233.945 188.655C233.17 199.528 224.975 210.789 209.552 219.694Z" fill="url(#paint2_radial_43_459)"/>
<path opacity="0.2" d="M233.912 209.079V205.917H233.88C232.493 216.306 224.297 226.954 209.584 235.472L171.221 257.605C141.569 274.738 96.6885 276.577 71.0054 261.768L17.3484 230.793C6.6363 224.598 1.02216 216.467 0.183261 207.885V211.724H0.215526C-1.20414 222.275 4.37774 232.568 17.3161 240.021L70.9731 270.996C96.6562 285.838 141.537 283.966 171.189 266.833L209.552 244.699C227.169 234.536 235.429 221.275 233.912 209.079Z" fill="url(#paint3_linear_43_459)"/>
<path d="M140.537 13.261H94.6559L44.7416 182.169C44.7416 182.363 44.7416 182.557 44.7416 182.75C44.7416 206.175 77.3617 225.179 117.596 225.179C157.831 225.179 190.451 206.175 190.451 182.75C190.451 182.557 190.451 182.363 190.451 182.169L140.537 13.261Z" fill="url(#paint4_linear_43_459)"/>
<path d="M140.537 13.3578C140.537 20.7465 130.277 26.7156 117.596 26.7156C104.916 26.7156 94.6558 20.7465 94.6558 13.3578C94.6558 5.96906 104.916 0 117.596 0C130.277 0 140.537 5.96906 140.537 13.3578Z" fill="url(#paint5_linear_43_459)"/>
<path d="M190.419 182.169L180.514 148.646C180.514 149.033 180.578 149.452 180.578 149.84C180.578 170.102 152.378 186.525 117.596 186.525C82.8146 186.525 54.6148 170.102 54.6148 149.84C54.6148 149.452 54.6148 149.033 54.6793 148.646L44.7739 182.169C44.7739 182.363 44.7739 182.557 44.7739 182.75C44.7739 206.175 77.394 225.179 117.629 225.179C157.863 225.179 190.484 206.175 190.484 182.75C190.484 182.557 190.484 182.363 190.484 182.169H190.419Z" fill="url(#paint6_linear_43_459)"/>
<path d="M160.509 80.9212C160.509 81.147 160.542 81.3729 160.542 81.631C160.542 95.4405 141.311 106.637 117.564 106.637C93.8171 106.637 74.587 95.4405 74.587 81.631C74.587 81.3729 74.6515 81.1148 74.6515 80.8244L64.5525 115.026C64.5525 115.348 64.5525 115.574 64.5525 115.735C64.5525 132.771 88.2675 146.581 117.532 146.581C146.797 146.581 170.511 132.771 170.511 115.735C170.511 115.574 170.544 115.348 170.576 115.155L160.477 80.9212H160.509Z" fill="url(#paint7_linear_43_459)"/>
<path d="M140.537 13.261C140.537 13.261 140.537 13.3255 140.537 13.3578C140.537 20.7465 130.277 26.7156 117.596 26.7156C104.916 26.7156 94.6558 20.7465 94.6558 13.3578C94.6558 13.3578 94.6558 13.2933 94.6558 13.261L84.6536 47.1395V47.4621C84.6536 58.0774 99.3988 66.6599 117.596 66.6599C135.794 66.6599 150.539 58.0774 150.539 47.4621V47.1395L140.537 13.261Z" fill="url(#paint8_linear_43_459)"/>
<path d="M136.439 12.6157C136.439 17.9394 127.986 22.2307 117.596 22.2307C107.207 22.2307 98.7535 17.9394 98.7535 12.6157C98.7535 7.29193 107.207 3.00066 117.596 3.00066C127.986 3.00066 136.439 7.29193 136.439 12.6157Z" fill="url(#paint9_linear_43_459)"/>
<path style="mix-blend-mode:multiply" d="M136.439 12.6157C136.439 17.9394 127.986 22.2307 117.596 22.2307C107.207 22.2307 98.7535 17.9394 98.7535 12.6157C98.7535 7.29193 107.207 3.00066 117.596 3.00066C127.986 3.00066 136.439 7.29193 136.439 12.6157Z" fill="url(#paint10_linear_43_459)"/>
<path style="mix-blend-mode:color-dodge" d="M136.73 7.2597L121.888 10.1313L137.698 179.104C137.73 179.298 137.762 179.491 137.794 179.685C142.215 202.69 156.379 219.307 169.382 216.79C182.385 214.273 189.354 193.591 184.902 170.586C184.869 170.393 184.837 170.199 184.773 170.005L136.73 7.2597Z" fill="url(#paint11_radial_43_459)"/>
<path style="mix-blend-mode:color-dodge" d="M101.625 7.2597L116.467 10.1313L100.657 179.104C100.625 179.298 100.593 179.491 100.56 179.685C96.1078 202.69 81.9756 219.307 68.9727 216.79C55.9698 214.273 49.0006 193.591 53.4532 170.586C53.4854 170.393 53.55 170.199 53.5822 170.005L101.625 7.2597Z" fill="url(#paint12_radial_43_459)"/>
<defs>
<linearGradient id="paint0_linear_43_459" x1="235.3" y1="229.954" x2="-3.011" y2="229.954" gradientUnits="userSpaceOnUse">
<stop offset="0.04" stop-color="#9F19AB"/>
<stop offset="0.13" stop-color="#A21BAC"/>
<stop offset="0.22" stop-color="#AE24B0"/>
<stop offset="0.31" stop-color="#C133B7"/>
<stop offset="0.4" stop-color="#DC48C1"/>
<stop offset="0.48" stop-color="#FF63CE"/>
<stop offset="0.61" stop-color="#ED55C7"/>
<stop offset="0.74" stop-color="#E04BC2"/>
<stop offset="0.87" stop-color="#DC48C1"/>
</linearGradient>
<linearGradient id="paint1_linear_43_459" x1="254.917" y1="-72.0482" x2="97.4951" y2="227.921" gradientUnits="userSpaceOnUse">
<stop offset="0.04" stop-color="#9F19AB"/>
<stop offset="0.24" stop-color="#AE24B0"/>
<stop offset="0.65" stop-color="#D643BF"/>
<stop offset="1" stop-color="#FF63CE"/>
</linearGradient>
<radialGradient id="paint2_radial_43_459" cx="0" cy="0" r="1" gradientUnits="userSpaceOnUse" gradientTransform="translate(104.981 225.082) scale(67.0148 67.0148)">
<stop stop-color="white"/>
<stop offset="1"/>
</radialGradient>
<linearGradient id="paint3_linear_43_459" x1="-0.0103305" y1="243.441" x2="3.21619" y2="243.441" gradientUnits="userSpaceOnUse">
<stop offset="0.04" stop-color="#9F19AB"/>
<stop offset="0.13" stop-color="#A21BAC"/>
<stop offset="0.22" stop-color="#AE24B0"/>
<stop offset="0.31" stop-color="#C133B7"/>
<stop offset="0.4" stop-color="#DC48C1"/>
<stop offset="0.48" stop-color="#FF63CE"/>
<stop offset="0.61" stop-color="#ED55C7"/>
<stop offset="0.74" stop-color="#E04BC2"/>
<stop offset="0.87" stop-color="#DC48C1"/>
</linearGradient>
<linearGradient id="paint4_linear_43_459" x1="62.5197" y1="106.54" x2="184.74" y2="132.32" gradientUnits="userSpaceOnUse">
<stop offset="0.01" stop-color="#C1A1D5"/>
<stop offset="0.05" stop-color="#C7ABD9"/>
<stop offset="0.11" stop-color="#D9C6E5"/>
<stop offset="0.2" stop-color="#F6F2F9"/>
<stop offset="0.22" stop-color="white"/>
<stop offset="0.25" stop-color="#F8F5FA"/>
<stop offset="0.31" stop-color="#E7DBEF"/>
<stop offset="0.36" stop-color="#D5BFE3"/>
<stop offset="0.4" stop-color="#C7AEE0"/>
<stop offset="0.48" stop-color="#B396DD"/>
<stop offset="0.55" stop-color="#A788DB"/>
<stop offset="0.61" stop-color="#A383DB"/>
<stop offset="0.76" stop-color="#AD8DDB"/>
<stop offset="1" stop-color="#C8A6DE"/>
</linearGradient>
<linearGradient id="paint5_linear_43_459" x1="65.2622" y1="-12.8093" x2="134.019" y2="21.5854" gradientUnits="userSpaceOnUse">
<stop offset="0.04" stop-color="#9F19AB"/>
<stop offset="0.24" stop-color="#AE24B0"/>
<stop offset="0.65" stop-color="#D643BF"/>
<stop offset="1" stop-color="#FF63CE"/>
</linearGradient>
<linearGradient id="paint6_linear_43_459" x1="51.3883" y1="167.715" x2="171.705" y2="193.01" gradientUnits="userSpaceOnUse">
<stop stop-color="#C211A1"/>
<stop offset="0.03" stop-color="#C518A4"/>
<stop offset="0.08" stop-color="#CD2CAF"/>
<stop offset="0.09" stop-color="#CF30B1"/>
<stop offset="0.21" stop-color="#FF63CE"/>
<stop offset="0.28" stop-color="#EB48BF"/>
<stop offset="0.41" stop-color="#C211A1"/>
<stop offset="0.54" stop-color="#A919AB"/>
<stop offset="0.73" stop-color="#AC17A9"/>
<stop offset="0.9" stop-color="#B714A5"/>
<stop offset="1" stop-color="#C211A1"/>
</linearGradient>
<linearGradient id="paint7_linear_43_459" x1="65.7786" y1="99.3124" x2="186.096" y2="124.608" gradientUnits="userSpaceOnUse">
<stop stop-color="#C211A1"/>
<stop offset="0.03" stop-color="#C518A4"/>
<stop offset="0.08" stop-color="#CD2CAF"/>
<stop offset="0.09" stop-color="#CF30B1"/>
<stop offset="0.21" stop-color="#FF63CE"/>
<stop offset="0.28" stop-color="#EB48BF"/>
<stop offset="0.41" stop-color="#C211A1"/>
<stop offset="0.54" stop-color="#A919AB"/>
<stop offset="0.73" stop-color="#AC17A9"/>
<stop offset="0.9" stop-color="#B714A5"/>
<stop offset="1" stop-color="#C211A1"/>
</linearGradient>
<linearGradient id="paint8_linear_43_459" x1="80.2978" y1="30.3293" x2="200.583" y2="55.6252" gradientUnits="userSpaceOnUse">
<stop stop-color="#C211A1"/>
<stop offset="0.03" stop-color="#C518A4"/>
<stop offset="0.08" stop-color="#CD2CAF"/>
<stop offset="0.09" stop-color="#CF30B1"/>
<stop offset="0.21" stop-color="#FF63CE"/>
<stop offset="0.28" stop-color="#EB48BF"/>
<stop offset="0.41" stop-color="#C211A1"/>
<stop offset="0.54" stop-color="#A919AB"/>
<stop offset="0.73" stop-color="#AC17A9"/>
<stop offset="0.9" stop-color="#B714A5"/>
<stop offset="1" stop-color="#C211A1"/>
</linearGradient>
<linearGradient id="paint9_linear_43_459" x1="135.955" y1="12.6157" x2="94.2041" y2="12.6157" gradientUnits="userSpaceOnUse">
<stop offset="0.04" stop-color="#9F19AB"/>
<stop offset="0.16" stop-color="#AE24B0"/>
<stop offset="0.41" stop-color="#D643BF"/>
<stop offset="0.63" stop-color="#FF63CE"/>
<stop offset="0.87" stop-color="#DC48C1"/>
</linearGradient>
<linearGradient id="paint10_linear_43_459" x1="117.596" y1="5.16243" x2="117.596" y2="76.4685" gradientUnits="userSpaceOnUse">
<stop stop-color="white"/>
<stop offset="1"/>
</linearGradient>
<radialGradient id="paint11_radial_43_459" cx="0" cy="0" r="1" gradientUnits="userSpaceOnUse" gradientTransform="translate(144.079 113.503) rotate(-10.9) scale(22.6153 68.5313)">
<stop stop-color="#10054D"/>
<stop offset="0.1" stop-color="#0C033D"/>
<stop offset="0.32" stop-color="#070222"/>
<stop offset="0.54" stop-color="#03000F"/>
<stop offset="0.76" stop-color="#000003"/>
<stop offset="1"/>
</radialGradient>
<radialGradient id="paint12_radial_43_459" cx="0" cy="0" r="1" gradientUnits="userSpaceOnUse" gradientTransform="translate(62.1377 108.623) rotate(-169.1) scale(22.6153 68.5313)">
<stop stop-color="#972A74"/>
<stop offset="0.04" stop-color="#8A266A"/>
<stop offset="0.19" stop-color="#601A49"/>
<stop offset="0.35" stop-color="#3D112F"/>
<stop offset="0.51" stop-color="#22091A"/>
<stop offset="0.67" stop-color="#0F040B"/>
<stop offset="0.83" stop-color="#030102"/>
<stop offset="1"/>
</radialGradient>
</defs>
</svg>
