<svg width="1036" height="108" viewBox="0 0 1036 108" fill="none" xmlns="http://www.w3.org/2000/svg">
<path d="M0.138 3.24999H4.659C14.1577 3.24999 22.2407 6.53799 28.908 13.114C35.5753 19.5987 38.909 27.2707 38.909 36.13C38.909 44.9893 35.4383 52.6157 28.497 59.009C21.647 65.4023 14.0663 68.599 5.755 68.599H4.659V106H0.138V3.24999ZM4.659 64.763H5.755C13.427 64.763 20.0943 61.9317 25.757 56.269C31.511 50.6063 34.388 43.8933 34.388 36.13C34.388 28.3667 31.4653 21.608 25.62 15.854C19.866 10.1 13.2443 7.223 5.755 7.223H4.659V64.763ZM101.881 107.781C87.7242 107.781 75.4398 102.438 65.0278 91.752C54.7072 81.066 49.5468 68.599 49.5468 54.351C49.5468 40.0117 54.7985 27.636 65.3018 17.224C75.8052 6.72067 88.4092 1.469 103.114 1.469C117.819 1.469 130.377 6.675 140.789 17.087C151.201 27.499 156.407 39.9203 156.407 54.351C156.407 68.6903 151.247 81.203 140.926 91.889C130.605 102.484 118.275 107.781 103.936 107.781H101.881ZM151.886 54.625C151.886 41.1077 147.091 29.554 137.501 19.964C128.002 10.2827 116.494 5.442 102.977 5.442C89.5508 5.442 78.0428 10.2827 68.4528 19.964C58.8628 29.554 54.0678 41.1077 54.0678 54.625C54.0678 68.051 58.8628 79.6047 68.4528 89.286C78.0428 98.9673 89.5508 103.808 102.977 103.808C116.403 103.808 127.911 98.9673 137.501 89.286C147.091 79.6047 151.886 68.051 151.886 54.625ZM177.384 3.24999V102.027H209.168V106H172.863V3.24999H177.384ZM222.916 3.24999H227.437V106H222.916V3.24999ZM290.095 17.772C287.995 13.936 285.118 10.922 281.464 8.72999C277.902 6.538 273.884 5.442 269.408 5.442C264.933 5.442 261.097 6.85766 257.9 9.689C254.795 12.429 253.242 16.2193 253.242 21.06V21.745C253.242 27.499 256.439 32.7507 262.832 37.5C265.572 39.5093 268.632 41.5187 272.011 43.528C275.482 45.446 278.907 47.5467 282.286 49.83C285.757 52.022 288.862 54.3967 291.602 56.954C294.434 59.42 296.717 62.4797 298.452 66.133C300.279 69.7863 301.192 73.805 301.192 78.189V79.559C301.192 88.2357 298.224 95.1313 292.287 100.246C286.442 105.361 279.181 107.918 270.504 107.918C259.088 107.918 250.228 103.214 243.926 93.807V86.409C246.301 91.615 249.772 95.862 254.338 99.15C258.996 102.347 264.75 103.945 271.6 103.945C278.45 103.945 284.387 101.753 289.41 97.369C294.434 92.985 296.945 87.1397 296.945 79.833V79.011C296.945 74.4443 295.758 70.2887 293.383 66.544C291.009 62.708 288.04 59.6027 284.478 57.228C280.916 54.762 277.035 52.2047 272.833 49.556C268.632 46.9073 264.75 44.4413 261.188 42.158C257.626 39.8747 254.658 36.9977 252.283 33.527C249.909 30.0563 248.721 26.266 248.721 22.156V21.197C248.721 14.8037 250.776 9.91733 254.886 6.538C258.996 3.15867 264.065 1.469 270.093 1.469C278.496 1.469 285.163 4.57433 290.095 10.785V17.772ZM391.893 3.24999H396.414V106H391.893V66.818H321.475V106H316.954V3.24999H321.475V62.845H391.893V3.24999ZM417.028 3.24999H453.881V7.223H421.549V63.119H448.538V67.092H421.549V102.027H453.881V106H417.028V3.24999ZM467.6 3.24999H471.984C487.328 3.24999 499.704 8.31899 509.111 18.457C518.519 28.5037 523.222 40.6053 523.222 54.762C523.222 68.8273 518.519 80.8833 509.111 90.93C499.795 100.977 487.42 106 471.984 106H467.6V3.24999ZM473.08 7.36H471.984V101.753H473.08C486.415 101.753 497.329 97.1407 505.823 87.916C514.409 78.6913 518.701 67.64 518.701 54.762C518.701 41.7927 514.409 30.65 505.823 21.334C497.329 12.018 486.415 7.36 473.08 7.36ZM587.609 3.24999H591.993C597.93 3.24999 602.907 5.12233 606.926 8.86699C610.945 12.5203 612.954 17.224 612.954 22.978C612.954 26.4487 611.812 30.0107 609.529 33.664C607.337 37.226 604.734 39.555 601.72 40.651C608.753 42.3863 614.598 46.131 619.256 51.885C623.914 57.639 626.243 64.9 626.243 73.668C626.243 82.3447 622.909 89.9253 616.242 96.41C609.575 102.803 601.492 106 591.993 106H587.609V3.24999ZM591.993 43.117V102.164H593.089C600.944 102.164 607.702 99.2413 613.365 93.396C619.119 87.5507 621.996 80.6093 621.996 72.572C621.996 64.5347 619.165 57.639 613.502 51.885C607.839 46.0397 601.035 43.117 593.089 43.117H591.993ZM591.993 7.08599V39.418H593.089C597.199 39.418 600.807 37.774 603.912 34.486C607.109 31.1067 608.707 27.2707 608.707 22.978C608.707 18.594 607.154 14.8493 604.049 11.744C600.944 8.63866 597.29 7.08599 593.089 7.08599H591.993ZM659.179 106H654.658V64.9L623.422 3.24999H628.354L657.261 60.105L685.62 3.24999H689.73L659.179 64.9V106ZM792.072 17.772C789.971 13.936 787.094 10.922 783.441 8.72999C779.879 6.538 775.86 5.442 771.385 5.442C766.91 5.442 763.074 6.85766 759.877 9.689C756.772 12.429 755.219 16.2193 755.219 21.06V21.745C755.219 27.499 758.416 32.7507 764.809 37.5C767.549 39.5093 770.609 41.5187 773.988 43.528C777.459 45.446 780.884 47.5467 784.263 49.83C787.734 52.022 790.839 54.3967 793.579 56.954C796.41 59.42 798.694 62.4797 800.429 66.133C802.256 69.7863 803.169 73.805 803.169 78.189V79.559C803.169 88.2357 800.201 95.1313 794.264 100.246C788.419 105.361 781.158 107.918 772.481 107.918C761.064 107.918 752.205 103.214 745.903 93.807V86.409C748.278 91.615 751.748 95.862 756.315 99.15C760.973 102.347 766.727 103.945 773.577 103.945C780.427 103.945 786.364 101.753 791.387 97.369C796.41 92.985 798.922 87.1397 798.922 79.833V79.011C798.922 74.4443 797.735 70.2887 795.36 66.544C792.985 62.708 790.017 59.6027 786.455 57.228C782.893 54.762 779.011 52.2047 774.81 49.556C770.609 46.9073 766.727 44.4413 763.165 42.158C759.603 39.8747 756.635 36.9977 754.26 33.527C751.885 30.0563 750.698 26.266 750.698 22.156V21.197C750.698 14.8037 752.753 9.91733 756.863 6.538C760.973 3.15867 766.042 1.469 772.07 1.469C780.473 1.469 787.14 4.57433 792.072 10.785V17.772ZM864.003 0.783999L915.378 106H910.583L891.129 66.818H836.192L817.012 106H812.765L864.003 0.783999ZM863.592 10.237L837.973 62.845H889.485L863.592 10.237ZM1035.06 3.24999V106H1030.54V8.593L982.042 107.918L933.818 8.593V106H929.708V3.24999H936.284L982.453 98.054L1028.76 3.24999H1035.06Z" fill="#606060"/>
</svg>
