<svg width="380" height="489" viewBox="0 0 380 489" fill="none" xmlns="http://www.w3.org/2000/svg">
<g opacity="0.2">
<path d="M163.386 285.856L160.029 307.336L179.397 296.195L182.755 274.715L163.386 285.856Z" fill="url(#paint0_linear_43_477)"/>
<path d="M163.443 285.856L160.086 307.336L140.89 296.195L144.218 274.773L163.443 285.856Z" fill="url(#paint1_linear_43_477)"/>
</g>
<path d="M120.746 22.2533L163.156 282.849L182.525 271.737L140.115 11.141L120.746 22.2533Z" fill="url(#paint2_linear_43_477)"/>
<path d="M120.803 22.2533L163.185 282.849L143.989 271.737L101.578 11.1982L120.803 22.2533Z" fill="url(#paint3_linear_43_477)"/>
<path d="M101.578 11.1983L120.803 22.2533L140.115 11.141L120.803 0L101.578 11.1983Z" fill="url(#paint4_linear_43_477)"/>
<path opacity="0.02" d="M0 357.227L183.185 248.252L380 356.969L192.97 470.098L0 357.227Z" fill="black"/>
<path opacity="0.04" d="M6.59971 356.253L182.869 251.288L375.495 356.998L193.831 466.346L6.59971 356.253Z" fill="black"/>
<path opacity="0.05" d="M13.1994 355.308L182.554 254.324L370.961 357.027L194.692 462.594L13.1994 355.308Z" fill="black"/>
<path opacity="0.07" d="M19.7704 354.335L182.238 257.359L366.456 357.084L195.552 458.842L19.7704 354.335Z" fill="black"/>
<path opacity="0.09" d="M26.3702 353.389L181.923 260.395L361.923 357.113L196.413 455.09L26.3702 353.389Z" fill="black"/>
<path opacity="0.1" d="M32.9699 352.444L181.607 263.431L357.389 357.141L197.274 451.338L32.9699 352.444Z" fill="black"/>
<path opacity="0.12" d="M39.5696 351.471L181.32 266.467L352.884 357.199L198.164 447.615L39.5696 351.471Z" fill="black"/>
<path opacity="0.13" d="M46.1693 350.525L181.004 269.474L348.35 357.227L199.024 443.863L46.1693 350.525Z" fill="black"/>
<path opacity="0.15" d="M52.769 349.552L180.689 272.51L343.845 357.284L199.885 440.111L52.769 349.552Z" fill="black"/>
<path opacity="0.17" d="M59.34 348.607L180.373 275.546L339.311 357.313L200.746 436.36L59.34 348.607Z" fill="black"/>
<path opacity="0.18" d="M65.9397 347.633L180.057 278.582L334.778 357.342L201.607 432.608L65.9397 347.633Z" fill="black"/>
<path opacity="0.2" d="M72.5395 346.688L179.742 281.617L330.273 357.399L202.468 428.856L72.5395 346.688Z" fill="black"/>
<path d="M120.746 22.2533L19.1679 368.34L38.5366 357.227L140.115 11.141L120.746 22.2533Z" fill="url(#paint5_linear_43_477)"/>
<path d="M120.803 22.2533L19.2253 368.34L0 357.227L101.578 11.1982L120.803 22.2533Z" fill="url(#paint6_linear_43_477)"/>
<path d="M101.578 11.1983L120.803 22.2533L140.115 11.141L120.803 0L101.578 11.1983Z" fill="url(#paint7_linear_43_477)"/>
<path d="M197.532 383.404L194.491 391.223L40.66 303.814L43.6729 296.023L197.532 383.404Z" fill="url(#paint8_linear_43_477)"/>
<path d="M43.6729 296.023L197.532 383.404L208.522 377.189L54.6342 289.78L43.6729 296.023Z" fill="url(#paint9_linear_43_477)"/>
<path d="M294.835 121.606L337.217 382.201L356.585 371.089L314.204 110.493L294.835 121.606Z" fill="url(#paint10_linear_43_477)"/>
<path d="M294.892 121.606L337.274 382.201L318.049 371.089L275.667 110.551L294.892 121.606Z" fill="url(#paint11_linear_43_477)"/>
<path d="M275.667 110.551L294.892 121.606L314.204 110.493L294.892 99.3523L275.667 110.551Z" fill="url(#paint12_linear_43_477)"/>
<path d="M294.835 121.606L193.228 467.692L212.597 456.579L314.204 110.493L294.835 121.606Z" fill="url(#paint13_linear_43_477)"/>
<path d="M294.892 121.606L193.286 467.692L174.089 456.579L275.667 110.551L294.892 121.606Z" fill="url(#paint14_linear_43_477)"/>
<path d="M275.667 110.551L294.892 121.606L314.204 110.493L294.892 99.3523L275.667 110.551Z" fill="url(#paint15_linear_43_477)"/>
<path d="M263.099 322.029L34.175 190.485C24.505 184.957 19.5983 170.723 23.1851 158.752L34.175 122.15C36.0115 116.078 28.6083 115.706 33.056 113.644C33.429 113.472 44.8494 109.319 45.2224 109.176C49.2683 107.658 53.8594 107.973 58.1923 110.465L287.116 242.008C296.786 247.536 301.693 261.77 298.106 273.741L287.116 310.343C285.136 316.902 281.033 321.456 276.155 323.289C275.983 323.346 264.362 327.699 264.189 327.757C260.258 329.103 267.317 324.434 263.099 322.029Z" fill="url(#paint16_linear_43_477)"/>
<path d="M251.535 326.353L22.6112 194.81C12.9412 189.282 8.03443 175.077 11.6212 163.076L22.6112 126.474C26.198 114.474 36.9584 109.233 46.6284 114.789L275.552 246.333C285.222 251.86 290.129 266.095 286.542 278.066L275.552 314.668C271.937 326.668 261.205 331.909 251.535 326.353Z" fill="url(#paint17_linear_43_477)"/>
<path d="M290.674 230.123L61.7504 98.579C52.0804 93.0515 47.1736 78.8174 50.7604 66.8458L61.7504 30.2439C63.5868 24.1436 56.1837 23.7999 60.6313 21.7378C61.0043 21.5659 72.4247 17.4131 72.769 17.2699C76.8149 15.752 81.406 16.0671 85.7676 18.5587L314.692 150.102C324.362 155.63 329.268 169.864 325.681 181.836L314.692 218.438C312.712 224.996 308.608 229.55 303.702 231.383C303.558 231.44 291.908 235.793 291.736 235.851C287.805 237.197 294.864 232.528 290.646 230.123H290.674Z" fill="url(#paint18_linear_43_477)"/>
<path d="M279.139 234.447L50.1865 102.904C40.5165 97.3761 35.6098 83.142 39.1966 71.1705L50.1865 34.5685C53.7733 22.5683 64.5337 17.3272 74.2037 22.8834L303.128 154.427C312.798 159.955 317.704 174.189 314.118 186.16L303.128 222.762C299.541 234.762 288.78 240.004 279.11 234.447H279.139Z" fill="url(#paint19_linear_43_477)"/>
<path style="mix-blend-mode:color-dodge" d="M277.36 245.56L48.4362 114.016C44.2468 111.61 39.8565 111.267 35.9254 112.584C38.9383 112.298 42.1234 112.956 45.1937 114.703L274.118 246.247C283.788 251.775 288.694 266.009 285.108 277.98L274.118 314.582C272.339 320.482 268.838 324.721 264.591 326.869C265.739 326.754 266.858 326.468 267.977 326.067C272.166 323.89 275.638 319.709 277.389 313.866L288.379 277.264C291.994 265.264 287.059 251.059 277.389 245.531L277.36 245.56Z" fill="url(#paint20_radial_43_477)"/>
<path style="mix-blend-mode:color-dodge" d="M304.935 153.625L76.0115 22.1101C71.8221 19.7043 67.4032 19.3607 63.472 20.6781C66.4849 20.3917 69.67 21.0504 72.7403 22.7975L301.664 154.341C311.334 159.869 316.241 174.103 312.654 186.074L301.664 222.676C299.885 228.576 296.385 232.815 292.138 234.963C293.286 234.848 294.405 234.562 295.524 234.161C299.713 231.984 303.185 227.803 304.935 221.96L315.925 185.358C319.512 173.358 314.605 159.153 304.935 153.625Z" fill="url(#paint21_radial_43_477)"/>
<path opacity="0.02" d="M243.415 303.928L41.4347 188.222L87.0588 37.5757L289.039 153.281L243.415 303.928Z" fill="black"/>
<path opacity="0.05" d="M242.697 302.84L42.5538 188.194L87.6327 39.2655L287.776 153.912L242.697 302.84Z" fill="black"/>
<path opacity="0.07" d="M241.98 301.78L43.6729 188.194L88.2066 40.9266L286.514 154.513L241.98 301.78Z" fill="black"/>
<path opacity="0.1" d="M241.263 300.692L44.792 188.165L88.8092 42.5877L285.251 155.114L241.263 300.692Z" fill="black"/>
<path opacity="0.12" d="M240.545 299.632L45.9397 188.165L89.3831 44.2489L283.989 155.716L240.545 299.632Z" fill="black"/>
<path opacity="0.15" d="M239.828 298.544L47.0588 188.136L89.957 45.91L282.726 156.317L239.828 298.544Z" fill="black"/>
<path opacity="0.17" d="M239.082 297.484L48.1779 188.136L90.5308 47.5711L281.463 156.947L239.082 297.484Z" fill="black"/>
<path opacity="0.2" d="M238.364 296.424L49.297 188.108L91.1334 49.2322L280.201 157.549L238.364 296.424Z" fill="black"/>
<path opacity="0.22" d="M237.647 295.336L50.4161 188.108L91.7073 50.922L278.938 158.15L237.647 295.336Z" fill="black"/>
<path opacity="0.25" d="M236.93 294.276L51.5639 188.079L92.2812 52.5831L277.676 158.752L236.93 294.276Z" fill="black"/>
<path opacity="0.27" d="M236.212 293.188L52.6829 188.079L92.8838 54.2443L276.413 159.382L236.212 293.188Z" fill="black"/>
<path opacity="0.3" d="M235.495 292.128L53.802 188.051L93.4577 55.9054L275.122 159.983L235.495 292.128Z" fill="black"/>
<path d="M238.623 300.119L43.2425 188.194L85.8824 46.0818L281.263 158.007L238.623 300.119Z" fill="url(#paint22_linear_43_477)"/>
<path d="M93.8881 64.0678L266.514 162.962L230.789 282.018L58.1636 183.124L93.8881 64.0678ZM91.9369 59.1989L54.2898 184.642L232.712 286.859L270.359 161.415L91.9369 59.2276V59.1989Z" fill="url(#paint23_linear_43_477)"/>
<path style="mix-blend-mode:color-dodge" d="M85.8824 46.0818L84.9928 48.4303L278.881 159.009L237.131 298.773L238.623 300.119L281.263 158.007L85.8824 46.0818Z" fill="url(#paint24_radial_43_477)"/>
<path d="M89.4978 131.544C87.9483 128.136 87.8336 124.24 89.1535 119.859L94.8924 100.756C95.0072 100.412 95.1793 100.183 95.4376 100.068C95.6958 99.9537 95.9828 100.011 96.2984 100.183L100.344 102.503C100.66 102.675 100.89 102.961 101.033 103.276C101.176 103.591 101.176 103.963 101.09 104.307L95.3515 123.41C94.6054 125.873 94.6054 128.05 95.3515 129.94C96.0689 131.83 97.4462 133.348 99.4548 134.494C101.463 135.639 103.214 135.926 104.706 135.296C106.169 134.665 107.288 133.119 108.034 130.656L113.773 111.553C113.888 111.209 114.06 110.98 114.347 110.894C114.605 110.78 114.921 110.837 115.237 111.009L119.283 113.329C119.598 113.5 119.828 113.758 119.943 114.102C120.057 114.417 120.086 114.761 119.971 115.104L114.232 134.207C112.912 138.589 110.846 141.224 108.006 142.141C105.165 143.057 101.779 142.37 97.8479 140.107C93.8594 137.816 91.1047 134.981 89.5552 131.572L89.4978 131.544Z" fill="url(#paint25_linear_43_477)"/>
<path d="M118.508 150.99C118.364 150.647 118.336 150.332 118.45 150.017L127.604 119.486C127.719 119.143 127.891 118.913 128.149 118.799C128.407 118.684 128.694 118.713 129.01 118.913L132.425 120.89C132.97 121.205 133.314 121.72 133.458 122.408L139.77 150.417L145.911 129.968C146.026 129.625 146.198 129.396 146.456 129.281C146.714 129.167 147.001 129.195 147.317 129.396L151.076 131.572C151.392 131.744 151.621 132.002 151.765 132.346C151.908 132.689 151.908 133.033 151.822 133.377L142.669 163.878C142.554 164.222 142.382 164.451 142.095 164.537C141.836 164.652 141.549 164.594 141.263 164.451L137.791 162.475C137.217 162.131 136.844 161.616 136.7 160.928L130.301 133.405L124.275 153.425C124.189 153.74 124.017 153.94 123.759 154.055C123.501 154.169 123.214 154.141 122.898 153.94L119.11 151.792C118.824 151.62 118.594 151.363 118.45 151.048L118.508 150.99Z" fill="url(#paint26_linear_43_477)"/>
<path d="M150.646 169.434C150.502 169.091 150.473 168.776 150.588 168.461L159.742 137.93C159.857 137.587 160.029 137.358 160.287 137.243C160.545 137.128 160.832 137.157 161.148 137.358L171.851 143.487C180.488 148.441 183.616 155.2 181.234 163.821C180.746 165.683 180.402 166.914 180.23 167.516C180.057 168.117 179.656 169.291 179.053 171.067C177.618 175.363 175.552 177.969 172.826 178.857C170.1 179.745 166.571 178.914 162.209 176.423L151.277 170.15C150.99 169.979 150.76 169.721 150.617 169.406L150.646 169.434ZM163.644 170.895C166.083 172.298 168.006 172.728 169.44 172.184C170.875 171.64 172.023 170.065 172.884 167.401C173.515 165.568 173.888 164.394 174.032 163.936C174.175 163.449 174.491 162.274 174.978 160.413C175.696 157.807 175.667 155.601 174.864 153.74C174.089 151.878 172.453 150.246 170.014 148.842L164.649 145.778L158.049 167.745L163.616 170.952L163.644 170.895Z" fill="url(#paint27_linear_43_477)"/>
<path d="M182.611 187.735C182.468 187.392 182.439 187.077 182.554 186.762L191.707 156.231C191.822 155.888 191.994 155.659 192.253 155.544C192.511 155.429 192.798 155.458 193.113 155.659L212.482 166.742C212.798 166.914 213.027 167.201 213.171 167.516C213.314 167.859 213.343 168.203 213.228 168.547L212.281 171.697C212.166 172.041 211.994 172.241 211.736 172.327C211.478 172.413 211.162 172.356 210.847 172.184L196.442 163.936L193.974 172.155L207.403 179.859C207.719 180.031 207.948 180.318 208.092 180.633C208.235 180.976 208.235 181.32 208.149 181.664L207.26 184.614C207.145 184.957 206.973 185.158 206.715 185.244C206.456 185.33 206.141 185.272 205.825 185.101L192.396 177.396L189.842 185.903L204.591 194.351C204.907 194.523 205.136 194.781 205.28 195.096C205.423 195.411 205.452 195.755 205.337 196.098L204.39 199.277C204.276 199.621 204.103 199.85 203.845 199.907C203.587 199.993 203.271 199.936 202.956 199.764L183.242 188.48C182.956 188.308 182.726 188.051 182.583 187.735H182.611Z" fill="url(#paint28_linear_43_477)"/>
<path d="M211.076 204.032C210.933 203.688 210.904 203.373 211.019 203.058L220.172 172.528C220.287 172.184 220.459 171.955 220.717 171.84C220.976 171.726 221.263 171.754 221.578 171.955L232.941 178.456C236.557 180.518 239.082 183.01 240.603 185.96C242.095 188.91 242.353 192.031 241.377 195.296C240.689 197.588 239.598 199.191 238.106 200.165C236.614 201.139 234.835 201.425 232.798 201.053L235.581 216.662C235.61 216.891 235.581 217.091 235.581 217.263C235.495 217.55 235.323 217.722 235.093 217.807C234.835 217.893 234.605 217.865 234.376 217.722L230.33 215.402C229.871 215.144 229.527 214.8 229.326 214.428C229.125 214.056 228.981 213.597 228.895 213.111L226.628 198.762L220.603 195.325L217.217 206.581C217.131 206.896 216.93 207.096 216.671 207.211C216.413 207.325 216.098 207.268 215.782 207.096L211.736 204.776C211.449 204.604 211.22 204.347 211.076 204.032ZM228.293 193.492C230.043 194.494 231.506 194.838 232.626 194.523C233.745 194.208 234.548 193.234 235.036 191.631C235.524 190.027 235.438 188.566 234.835 187.191C234.204 185.845 233.027 184.642 231.277 183.64L225.165 180.146L222.209 189.998L228.321 193.492H228.293Z" fill="url(#paint29_linear_43_477)"/>
<path d="M75.1506 164.995C74.5194 163.391 74.4333 161.673 74.9211 159.783C75.0359 159.382 75.208 158.723 75.4663 157.864C75.7532 156.976 75.9541 156.317 76.0689 155.916C76.6715 154.112 77.6184 152.966 78.8809 152.451C80.1435 151.935 81.693 152.193 83.5007 153.224C84.7059 153.912 85.6815 154.742 86.3702 155.687C87.0588 156.632 87.5466 157.606 87.7475 158.58C87.9484 159.582 87.9484 160.499 87.7475 161.358C87.7188 161.501 87.6327 161.558 87.5179 161.587C87.4032 161.587 87.2884 161.587 87.1736 161.53L86.1406 160.957C86.1406 160.957 85.911 160.785 85.8537 160.671C85.7963 160.556 85.7676 160.384 85.7676 160.184C85.8824 158.924 85.6815 157.893 85.2224 157.091C84.7633 156.289 83.9885 155.601 82.9555 155C80.5739 153.654 78.9383 154.341 77.9914 157.119C77.8479 157.492 77.6758 158.093 77.4175 158.924C77.1879 159.754 76.9871 160.356 76.8723 160.785C76.1263 163.649 76.9297 165.769 79.3113 167.115C80.3443 167.716 81.2339 167.945 81.9799 167.831C82.726 167.716 83.3859 167.201 83.9598 166.227C84.0459 166.084 84.1607 165.998 84.2468 165.969C84.3616 165.969 84.4763 165.969 84.5911 166.055L85.6241 166.628C85.6241 166.628 85.8537 166.8 85.9111 166.943C85.9684 167.086 85.9971 167.201 85.9397 167.344C85.6528 168.174 85.165 168.833 84.505 169.32C83.8451 169.807 83.0416 170.065 82.066 170.036C81.0904 170.036 80 169.664 78.7661 168.948C76.9584 167.917 75.7245 166.599 75.0933 164.995H75.1506Z" fill="url(#paint30_linear_43_477)"/>
<path d="M89.2683 173.158C88.6083 171.611 88.5509 169.807 89.0961 167.773C89.2109 167.315 89.3831 166.714 89.6413 165.912C89.8709 165.11 90.0717 164.508 90.2152 164.079C90.8752 162.131 91.8508 160.928 93.142 160.499C94.462 160.041 95.9541 160.327 97.6471 161.301C99.34 162.274 100.545 163.563 101.234 165.138C101.923 166.714 102.009 168.518 101.463 170.551C101.234 171.411 101.062 172.041 100.947 172.413C100.832 172.785 100.631 173.387 100.344 174.246C99.6844 176.222 98.7375 177.425 97.4749 177.883C96.2124 178.342 94.6915 178.055 92.9125 177.024C91.1334 176.022 89.9283 174.733 89.2396 173.186L89.2683 173.158ZM96.4132 175.649C97.274 175.306 97.9627 174.446 98.4505 173.014C98.7375 172.155 98.9383 171.582 99.0244 171.296C99.1105 170.981 99.2826 170.38 99.5122 169.52C99.8852 168.031 99.8565 166.742 99.4261 165.654C98.9957 164.566 98.221 163.706 97.1306 163.076C96.0402 162.446 95.0646 162.303 94.175 162.647C93.3142 162.99 92.6255 163.878 92.1377 165.31C91.9943 165.74 91.8221 166.313 91.5925 167.057C91.363 167.773 91.1908 168.375 91.076 168.804C90.6743 170.294 90.703 171.554 91.1334 172.642C91.5639 173.73 92.3386 174.59 93.4577 175.22C94.5481 175.85 95.5237 175.993 96.3845 175.649H96.4132Z" fill="url(#paint31_linear_43_477)"/>
<path d="M102.353 182.007C102.353 182.007 102.296 181.721 102.353 181.578L106.628 167.315C106.686 167.143 106.743 167.057 106.858 167C106.973 166.943 107.088 166.971 107.231 167.057L108.121 167.573C108.121 167.573 108.35 167.745 108.407 167.831C108.465 167.917 108.494 168.031 108.551 168.174L112.023 183.354L115.352 172.298C115.409 172.127 115.495 172.041 115.61 171.983C115.725 171.926 115.839 171.955 115.983 172.041L116.901 172.556C117.044 172.642 117.159 172.757 117.217 172.9C117.274 173.043 117.274 173.186 117.217 173.358L112.941 187.592C112.912 187.735 112.826 187.85 112.683 187.879C112.568 187.936 112.425 187.907 112.31 187.85L111.392 187.306C111.162 187.163 111.019 186.991 110.99 186.733L107.489 171.64L104.189 182.609C104.189 182.609 104.075 182.838 103.96 182.895C103.845 182.953 103.73 182.924 103.587 182.838L102.64 182.294C102.64 182.294 102.41 182.122 102.353 181.95V182.007Z" fill="url(#paint32_linear_43_477)"/>
<path d="M118.623 191.058C117.905 190.198 117.446 189.339 117.188 188.48C116.93 187.621 116.901 186.819 117.102 186.074C117.131 185.96 117.217 185.874 117.303 185.845C117.418 185.817 117.532 185.845 117.647 185.903L118.651 186.475C118.91 186.618 119.024 186.848 119.024 187.191C118.967 187.879 119.139 188.595 119.598 189.368C120.029 190.141 120.803 190.829 121.865 191.459C123.013 192.117 123.96 192.404 124.648 192.289C125.366 192.175 125.825 191.745 126.055 190.972C126.198 190.485 126.198 189.998 125.997 189.511C125.825 189.024 125.481 188.509 124.993 187.965C124.505 187.42 123.788 186.647 122.783 185.645C121.836 184.728 121.09 183.898 120.603 183.182C120.086 182.466 119.77 181.75 119.598 181.034C119.455 180.318 119.484 179.573 119.742 178.742C119.971 177.969 120.373 177.368 120.976 176.967C121.55 176.566 122.267 176.423 123.128 176.48C123.989 176.566 124.935 176.881 125.94 177.454C127.001 178.055 127.862 178.8 128.494 179.63C129.125 180.461 129.555 181.291 129.785 182.122C129.986 182.953 130.014 183.669 129.871 184.299C129.842 184.442 129.756 184.528 129.641 184.556C129.527 184.585 129.412 184.585 129.297 184.499L128.264 183.898C128.264 183.898 128.063 183.754 128.006 183.611C127.92 183.497 127.891 183.325 127.891 183.153C128.006 182.494 127.834 181.778 127.374 181.034C126.915 180.289 126.255 179.688 125.423 179.201C124.505 178.685 123.702 178.456 123.042 178.513C122.382 178.599 121.923 179 121.722 179.745C121.578 180.26 121.578 180.747 121.722 181.206C121.865 181.664 122.181 182.179 122.64 182.723C123.099 183.268 123.759 183.984 124.677 184.9C125.739 185.902 126.542 186.79 127.088 187.506C127.633 188.222 128.006 188.938 128.178 189.654C128.35 190.37 128.321 191.115 128.063 191.946C127.661 193.32 126.858 194.094 125.653 194.294C124.448 194.494 123.013 194.122 121.349 193.177C120.23 192.547 119.311 191.802 118.594 190.943L118.623 191.058Z" fill="url(#paint33_linear_43_477)"/>
<path d="M133.199 199.65C133.142 199.507 133.142 199.363 133.199 199.22L137.073 186.303L133.113 184.041C133.113 184.041 132.884 183.84 132.826 183.697C132.769 183.554 132.769 183.411 132.826 183.268L133.085 182.408C133.142 182.237 133.199 182.151 133.343 182.093C133.458 182.036 133.572 182.093 133.716 182.151L143.529 187.764C143.673 187.85 143.788 187.965 143.845 188.108C143.902 188.251 143.902 188.394 143.845 188.566L143.587 189.425C143.529 189.568 143.472 189.654 143.357 189.712C143.242 189.769 143.099 189.74 142.984 189.654L139.053 187.392L135.179 200.308C135.179 200.308 135.036 200.538 134.921 200.595C134.806 200.623 134.663 200.595 134.548 200.538L133.572 199.965C133.572 199.965 133.343 199.764 133.286 199.621L133.199 199.65Z" fill="url(#paint34_linear_43_477)"/>
<path d="M142.353 204.919C142.353 204.919 142.296 204.633 142.353 204.49L146.628 190.227C146.686 190.055 146.772 189.969 146.858 189.912C146.973 189.855 147.088 189.883 147.231 189.969L152.224 192.833C153.773 193.721 154.864 194.81 155.524 196.098C156.155 197.387 156.27 198.762 155.811 200.251C155.466 201.368 154.95 202.113 154.204 202.542C153.458 202.972 152.597 203.029 151.593 202.8L152.999 210.418C152.999 210.418 152.999 210.619 152.999 210.705C152.97 210.819 152.884 210.905 152.798 210.934C152.683 210.963 152.568 210.934 152.482 210.905L151.593 210.39C151.392 210.275 151.248 210.132 151.162 209.96C151.076 209.788 151.019 209.588 150.99 209.33L149.67 202.027L146.026 199.936L144.333 205.607C144.275 205.75 144.218 205.836 144.075 205.893C143.96 205.922 143.816 205.893 143.673 205.836L142.697 205.263C142.697 205.263 142.468 205.063 142.41 204.948L142.353 204.919ZM149.928 200.079C151.994 201.254 153.286 200.91 153.859 199.077C154.405 197.244 153.659 195.726 151.593 194.523L148.149 192.547L146.485 198.103L149.928 200.079Z" fill="url(#paint35_linear_43_477)"/>
<path d="M157.762 212.395C157.102 210.848 157.102 209.044 157.704 206.982L160.373 198.103C160.43 197.931 160.488 197.845 160.603 197.788C160.717 197.731 160.832 197.759 160.976 197.845L161.951 198.418C162.095 198.504 162.209 198.619 162.267 198.762C162.324 198.905 162.324 199.048 162.267 199.22L159.598 208.127C159.168 209.559 159.168 210.791 159.598 211.85C160 212.91 160.775 213.769 161.923 214.428C163.042 215.087 164.046 215.23 164.878 214.886C165.71 214.543 166.341 213.655 166.772 212.251L169.44 203.344C169.498 203.201 169.555 203.087 169.67 203.029C169.785 202.972 169.9 203.029 170.043 203.087L171.019 203.659C171.019 203.659 171.248 203.86 171.306 204.003C171.363 204.146 171.363 204.289 171.306 204.461L168.637 213.34C168.034 215.402 167.088 216.662 165.825 217.12C164.591 217.578 163.07 217.321 161.32 216.318C159.57 215.316 158.364 214.027 157.704 212.48L157.762 212.395Z" fill="url(#paint36_linear_43_477)"/>
<path d="M172.281 220.614C171.65 219.01 171.564 217.292 172.052 215.402C172.166 215.001 172.339 214.342 172.597 213.483C172.855 212.566 173.085 211.936 173.199 211.535C173.802 209.731 174.749 208.585 176.011 208.07C177.274 207.554 178.824 207.812 180.631 208.843C181.836 209.53 182.812 210.361 183.529 211.306C184.247 212.251 184.677 213.225 184.907 214.199C185.108 215.173 185.108 216.118 184.907 216.977C184.878 217.12 184.792 217.177 184.677 217.206C184.562 217.235 184.448 217.206 184.333 217.149L183.3 216.547C183.3 216.547 183.07 216.375 183.013 216.261C182.956 216.146 182.927 215.975 182.927 215.774C183.042 214.514 182.841 213.483 182.382 212.71C181.923 211.908 181.148 211.22 180.115 210.619C177.733 209.273 176.098 209.96 175.151 212.738C175.007 213.139 174.835 213.712 174.577 214.543C174.319 215.373 174.146 215.975 174.032 216.404C173.286 219.268 174.089 221.387 176.471 222.734C177.504 223.335 178.393 223.564 179.139 223.45C179.885 223.364 180.545 222.819 181.119 221.846C181.205 221.703 181.32 221.617 181.406 221.588C181.521 221.588 181.636 221.588 181.779 221.674L182.812 222.275C182.812 222.275 183.013 222.447 183.099 222.562C183.156 222.705 183.185 222.819 183.128 222.963C182.841 223.793 182.353 224.452 181.693 224.939C181.033 225.426 180.23 225.655 179.225 225.655C178.25 225.655 177.159 225.283 175.925 224.567C174.118 223.535 172.884 222.218 172.253 220.614H172.281Z" fill="url(#paint37_linear_43_477)"/>
<path d="M188.293 231.24C188.235 231.096 188.235 230.953 188.293 230.81L192.166 217.893L188.207 215.631C188.207 215.631 187.977 215.43 187.92 215.287C187.862 215.144 187.862 215.001 187.92 214.858L188.178 213.998C188.235 213.827 188.321 213.741 188.436 213.683C188.551 213.626 188.666 213.683 188.809 213.741L198.623 219.354C198.766 219.44 198.881 219.555 198.938 219.698C198.996 219.841 198.996 219.984 198.938 220.156L198.68 221.015C198.623 221.158 198.565 221.273 198.422 221.302C198.307 221.359 198.192 221.302 198.049 221.244L194.118 218.982L190.244 231.898C190.187 232.042 190.129 232.128 189.986 232.185C189.871 232.213 189.727 232.185 189.613 232.128L188.637 231.555C188.637 231.555 188.407 231.354 188.35 231.211L188.293 231.24Z" fill="url(#paint38_linear_43_477)"/>
<path d="M197.475 236.481C197.475 236.481 197.418 236.194 197.475 236.051L201.75 221.76C201.779 221.617 201.865 221.531 201.98 221.473C202.095 221.416 202.209 221.445 202.353 221.531L203.386 222.132C203.529 222.218 203.644 222.333 203.702 222.476C203.759 222.619 203.759 222.762 203.702 222.905L199.426 237.197C199.426 237.197 199.311 237.426 199.197 237.483C199.082 237.54 198.967 237.483 198.824 237.426L197.791 236.853C197.791 236.853 197.561 236.653 197.504 236.509L197.475 236.481Z" fill="url(#paint39_linear_43_477)"/>
<path d="M204.763 239.316C204.103 237.77 204.046 235.965 204.591 233.932C204.706 233.502 204.878 232.872 205.136 232.07C205.366 231.268 205.567 230.667 205.71 230.237C206.37 228.29 207.346 227.087 208.637 226.657C209.957 226.228 211.449 226.485 213.142 227.459C214.835 228.433 216.04 229.722 216.729 231.297C217.418 232.872 217.504 234.676 216.958 236.681C216.729 237.54 216.557 238.171 216.442 238.543C216.327 238.915 216.126 239.517 215.839 240.376C215.179 242.352 214.232 243.555 212.97 244.013C211.707 244.471 210.187 244.185 208.407 243.154C206.628 242.152 205.423 240.863 204.763 239.316ZM211.908 241.779C212.769 241.436 213.458 240.576 213.945 239.144C214.232 238.285 214.433 237.712 214.519 237.426C214.605 237.111 214.778 236.509 215.007 235.65C215.38 234.161 215.352 232.872 214.921 231.784C214.491 230.696 213.716 229.836 212.626 229.206C211.535 228.576 210.56 228.433 209.67 228.777C208.809 229.12 208.121 230.008 207.633 231.44C207.489 231.841 207.317 232.443 207.088 233.187C206.858 233.903 206.714 234.505 206.571 234.934C206.169 236.424 206.198 237.684 206.657 238.772C207.088 239.86 207.862 240.72 208.981 241.35C210.072 241.98 211.047 242.123 211.908 241.779Z" fill="url(#paint40_linear_43_477)"/>
<path d="M217.848 248.166C217.848 248.166 217.791 247.88 217.848 247.736L222.123 233.474C222.181 233.33 222.238 233.216 222.353 233.159C222.468 233.101 222.583 233.13 222.726 233.216L223.616 233.731C223.616 233.731 223.845 233.903 223.902 233.989C223.96 234.075 223.989 234.19 224.046 234.333L227.518 249.512L230.846 238.457C230.904 238.285 230.99 238.199 231.105 238.142C231.22 238.085 231.334 238.142 231.478 238.199L232.396 238.715C232.539 238.801 232.654 238.915 232.712 239.058C232.769 239.202 232.769 239.345 232.712 239.517L228.436 253.751C228.407 253.894 228.321 254.008 228.178 254.037C228.063 254.094 227.92 254.066 227.805 254.008L226.887 253.493C226.657 253.35 226.514 253.178 226.485 252.892L222.984 237.798L219.684 248.767C219.684 248.767 219.57 248.996 219.455 249.054C219.34 249.111 219.197 249.054 219.082 248.996L218.135 248.452C218.135 248.452 217.905 248.252 217.848 248.109V248.166Z" fill="url(#paint41_linear_43_477)"/>
<defs>
<linearGradient id="paint0_linear_43_477" x1="187.088" y1="306.907" x2="128.807" y2="247.712" gradientUnits="userSpaceOnUse">
<stop offset="0.04" stop-color="#4A4A54"/>
<stop offset="0.91" stop-color="#D4D1D8"/>
</linearGradient>
<linearGradient id="paint1_linear_43_477" x1="120.373" y1="298.171" x2="197.949" y2="280.753" gradientUnits="userSpaceOnUse">
<stop offset="0.04" stop-color="#4A4A54"/>
<stop offset="0.91" stop-color="#D4D1D8"/>
</linearGradient>
<linearGradient id="paint2_linear_43_477" x1="83.0129" y1="141.596" x2="638.753" y2="185.437" gradientUnits="userSpaceOnUse">
<stop offset="0.04" stop-color="#9D9EB3"/>
<stop offset="0.58" stop-color="#D4D1D8"/>
<stop offset="1" stop-color="#EEEBF2"/>
</linearGradient>
<linearGradient id="paint3_linear_43_477" x1="82.2956" y1="158.236" x2="184.716" y2="135.241" gradientUnits="userSpaceOnUse">
<stop offset="0.04" stop-color="#9D9EB3"/>
<stop offset="0.58" stop-color="#D4D1D8"/>
<stop offset="1" stop-color="#EEEBF2"/>
</linearGradient>
<linearGradient id="paint4_linear_43_477" x1="140.803" y1="-26.7784" x2="119.404" y2="14.067" gradientUnits="userSpaceOnUse">
<stop offset="0.04" stop-color="#9D9EB3"/>
<stop offset="0.58" stop-color="#D4D1D8"/>
<stop offset="1" stop-color="#EEEBF2"/>
</linearGradient>
<linearGradient id="paint5_linear_43_477" x1="79.2253" y1="189.712" x2="634.994" y2="233.524" gradientUnits="userSpaceOnUse">
<stop offset="0.04" stop-color="#9D9EB3"/>
<stop offset="0.58" stop-color="#D4D1D8"/>
<stop offset="1" stop-color="#EEEBF2"/>
</linearGradient>
<linearGradient id="paint6_linear_43_477" x1="-238.594" y1="256.672" x2="372.572" y2="119.392" gradientUnits="userSpaceOnUse">
<stop offset="0.04" stop-color="#9D9EB3"/>
<stop offset="0.58" stop-color="#D4D1D8"/>
<stop offset="1" stop-color="#EEEBF2"/>
</linearGradient>
<linearGradient id="paint7_linear_43_477" x1="140.803" y1="-26.7784" x2="119.404" y2="14.067" gradientUnits="userSpaceOnUse">
<stop offset="0.04" stop-color="#9D9EB3"/>
<stop offset="0.58" stop-color="#D4D1D8"/>
<stop offset="1" stop-color="#EEEBF2"/>
</linearGradient>
<linearGradient id="paint8_linear_43_477" x1="-340.341" y1="409.411" x2="304.761" y2="139.277" gradientUnits="userSpaceOnUse">
<stop offset="0.04" stop-color="#9D9EB3"/>
<stop offset="0.58" stop-color="#D4D1D8"/>
<stop offset="1" stop-color="#EEEBF2"/>
</linearGradient>
<linearGradient id="paint9_linear_43_477" x1="-26.8751" y1="302.519" x2="-42.5304" y2="338.933" gradientUnits="userSpaceOnUse">
<stop offset="0.04" stop-color="#9D9EB3"/>
<stop offset="0.58" stop-color="#D4D1D8"/>
<stop offset="1" stop-color="#EEEBF2"/>
</linearGradient>
<linearGradient id="paint10_linear_43_477" x1="268.063" y1="231.87" x2="864.858" y2="382.221" gradientUnits="userSpaceOnUse">
<stop offset="0.04" stop-color="#9D9EB3"/>
<stop offset="0.58" stop-color="#D4D1D8"/>
<stop offset="1" stop-color="#EEEBF2"/>
</linearGradient>
<linearGradient id="paint11_linear_43_477" x1="256.385" y1="257.588" x2="358.776" y2="234.594" gradientUnits="userSpaceOnUse">
<stop offset="0.04" stop-color="#9D9EB3"/>
<stop offset="0.58" stop-color="#D4D1D8"/>
<stop offset="1" stop-color="#EEEBF2"/>
</linearGradient>
<linearGradient id="paint12_linear_43_477" x1="314.892" y1="72.5739" x2="293.493" y2="113.419" gradientUnits="userSpaceOnUse">
<stop offset="0.04" stop-color="#9D9EB3"/>
<stop offset="0.58" stop-color="#D4D1D8"/>
<stop offset="1" stop-color="#EEEBF2"/>
</linearGradient>
<linearGradient id="paint13_linear_43_477" x1="253.659" y1="289.064" x2="850.453" y2="439.415" gradientUnits="userSpaceOnUse">
<stop offset="0.04" stop-color="#9D9EB3"/>
<stop offset="0.58" stop-color="#D4D1D8"/>
<stop offset="1" stop-color="#EEEBF2"/>
</linearGradient>
<linearGradient id="paint14_linear_43_477" x1="-64.5337" y1="356.024" x2="546.661" y2="218.745" gradientUnits="userSpaceOnUse">
<stop offset="0.04" stop-color="#9D9EB3"/>
<stop offset="0.58" stop-color="#D4D1D8"/>
<stop offset="1" stop-color="#EEEBF2"/>
</linearGradient>
<linearGradient id="paint15_linear_43_477" x1="314.892" y1="72.5739" x2="293.493" y2="113.419" gradientUnits="userSpaceOnUse">
<stop offset="0.04" stop-color="#9D9EB3"/>
<stop offset="0.58" stop-color="#D4D1D8"/>
<stop offset="1" stop-color="#EEEBF2"/>
</linearGradient>
<linearGradient id="paint16_linear_43_477" x1="224.735" y1="342.019" x2="173.412" y2="240.927" gradientUnits="userSpaceOnUse">
<stop offset="0.04" stop-color="#9D9EB3"/>
<stop offset="0.58" stop-color="#D4D1D8"/>
<stop offset="1" stop-color="#EEEBF2"/>
</linearGradient>
<linearGradient id="paint17_linear_43_477" x1="-394.364" y1="57.68" x2="654.969" y2="404.721" gradientUnits="userSpaceOnUse">
<stop offset="0.04" stop-color="#9D9EB3"/>
<stop offset="0.58" stop-color="#D4D1D8"/>
<stop offset="1" stop-color="#EEEBF2"/>
</linearGradient>
<linearGradient id="paint18_linear_43_477" x1="100.949" y1="1.48134" x2="273.048" y2="280.251" gradientUnits="userSpaceOnUse">
<stop offset="0.04" stop-color="#9D9EB3"/>
<stop offset="0.58" stop-color="#D4D1D8"/>
<stop offset="1" stop-color="#EEEBF2"/>
</linearGradient>
<linearGradient id="paint19_linear_43_477" x1="-304.669" y1="1.05227" x2="744.655" y2="348.058" gradientUnits="userSpaceOnUse">
<stop offset="0.04" stop-color="#9D9EB3"/>
<stop offset="0.58" stop-color="#D4D1D8"/>
<stop offset="1" stop-color="#EEEBF2"/>
</linearGradient>
<radialGradient id="paint20_radial_43_477" cx="0" cy="0" r="1" gradientUnits="userSpaceOnUse" gradientTransform="translate(274.835 201.798) scale(67.0588 66.9318)">
<stop stop-color="white"/>
<stop offset="1"/>
</radialGradient>
<radialGradient id="paint21_radial_43_477" cx="0" cy="0" r="1" gradientUnits="userSpaceOnUse" gradientTransform="translate(286.829 123.209) scale(72.4534 72.3161)">
<stop stop-color="white"/>
<stop offset="1"/>
</radialGradient>
<linearGradient id="paint22_linear_43_477" x1="-17.1306" y1="175.077" x2="302.726" y2="171.54" gradientUnits="userSpaceOnUse">
<stop offset="0.04" stop-color="#FFA98C"/>
<stop offset="0.32" stop-color="#FEB892"/>
<stop offset="0.86" stop-color="#FEE0A3"/>
<stop offset="1" stop-color="#FEECA8"/>
</linearGradient>
<linearGradient id="paint23_linear_43_477" x1="56.4419" y1="168.146" x2="285.048" y2="178.754" gradientUnits="userSpaceOnUse">
<stop stop-color="#25054D"/>
<stop offset="1" stop-color="#45108A"/>
</linearGradient>
<radialGradient id="paint24_radial_43_477" cx="0" cy="0" r="1" gradientUnits="userSpaceOnUse" gradientTransform="translate(201.923 145.978) scale(56.2984 56.1918)">
<stop stop-color="white"/>
<stop offset="1"/>
</radialGradient>
<linearGradient id="paint25_linear_43_477" x1="58.7088" y1="119.314" x2="287.315" y2="129.923" gradientUnits="userSpaceOnUse">
<stop stop-color="#25054D"/>
<stop offset="1" stop-color="#45108A"/>
</linearGradient>
<linearGradient id="paint26_linear_43_477" x1="57.8479" y1="138.102" x2="286.426" y2="148.711" gradientUnits="userSpaceOnUse">
<stop stop-color="#25054D"/>
<stop offset="1" stop-color="#45108A"/>
</linearGradient>
<linearGradient id="paint27_linear_43_477" x1="57.1306" y1="153.196" x2="285.737" y2="163.775" gradientUnits="userSpaceOnUse">
<stop stop-color="#25054D"/>
<stop offset="1" stop-color="#45108A"/>
</linearGradient>
<linearGradient id="paint28_linear_43_477" x1="56.2984" y1="171.182" x2="284.905" y2="181.761" gradientUnits="userSpaceOnUse">
<stop stop-color="#25054D"/>
<stop offset="1" stop-color="#45108A"/>
</linearGradient>
<linearGradient id="paint29_linear_43_477" x1="55.581" y1="186.876" x2="284.188" y2="197.456" gradientUnits="userSpaceOnUse">
<stop stop-color="#25054D"/>
<stop offset="1" stop-color="#45108A"/>
</linearGradient>
<linearGradient id="paint30_linear_43_477" x1="56.8436" y1="159.955" x2="285.421" y2="170.563" gradientUnits="userSpaceOnUse">
<stop stop-color="#25054D"/>
<stop offset="1" stop-color="#45108A"/>
</linearGradient>
<linearGradient id="paint31_linear_43_477" x1="56.4993" y1="167.401" x2="285.077" y2="177.981" gradientUnits="userSpaceOnUse">
<stop stop-color="#25054D"/>
<stop offset="1" stop-color="#45108A"/>
</linearGradient>
<linearGradient id="paint32_linear_43_477" x1="56.1263" y1="174.991" x2="284.733" y2="185.57" gradientUnits="userSpaceOnUse">
<stop stop-color="#25054D"/>
<stop offset="1" stop-color="#45108A"/>
</linearGradient>
<linearGradient id="paint33_linear_43_477" x1="55.782" y1="182.351" x2="284.417" y2="192.959" gradientUnits="userSpaceOnUse">
<stop stop-color="#25054D"/>
<stop offset="1" stop-color="#45108A"/>
</linearGradient>
<linearGradient id="paint34_linear_43_477" x1="55.5524" y1="187.735" x2="284.13" y2="198.344" gradientUnits="userSpaceOnUse">
<stop stop-color="#25054D"/>
<stop offset="1" stop-color="#45108A"/>
</linearGradient>
<linearGradient id="paint35_linear_43_477" x1="55.1507" y1="196.041" x2="283.757" y2="206.621" gradientUnits="userSpaceOnUse">
<stop stop-color="#25054D"/>
<stop offset="1" stop-color="#45108A"/>
</linearGradient>
<linearGradient id="paint36_linear_43_477" x1="54.8637" y1="202.542" x2="283.442" y2="213.151" gradientUnits="userSpaceOnUse">
<stop stop-color="#25054D"/>
<stop offset="1" stop-color="#45108A"/>
</linearGradient>
<linearGradient id="paint37_linear_43_477" x1="54.4906" y1="211.02" x2="283.04" y2="221.599" gradientUnits="userSpaceOnUse">
<stop stop-color="#25054D"/>
<stop offset="1" stop-color="#45108A"/>
</linearGradient>
<linearGradient id="paint38_linear_43_477" x1="54.2036" y1="216.719" x2="282.782" y2="227.299" gradientUnits="userSpaceOnUse">
<stop stop-color="#25054D"/>
<stop offset="1" stop-color="#45108A"/>
</linearGradient>
<linearGradient id="paint39_linear_43_477" x1="53.9169" y1="222.705" x2="282.523" y2="233.284" gradientUnits="userSpaceOnUse">
<stop stop-color="#25054D"/>
<stop offset="1" stop-color="#45108A"/>
</linearGradient>
<linearGradient id="paint40_linear_43_477" x1="53.6586" y1="228.089" x2="282.265" y2="238.669" gradientUnits="userSpaceOnUse">
<stop stop-color="#25054D"/>
<stop offset="1" stop-color="#45108A"/>
</linearGradient>
<linearGradient id="paint41_linear_43_477" x1="53.3429" y1="235.679" x2="281.921" y2="246.258" gradientUnits="userSpaceOnUse">
<stop stop-color="#25054D"/>
<stop offset="1" stop-color="#45108A"/>
</linearGradient>
</defs>
</svg>
